<?xml version="1.0" standalone="no"?>
<!DOCTYPE svg PUBLIC "-//W3C//DTD SVG 20010904//EN"
 "http://www.w3.org/TR/2001/REC-SVG-20010904/DTD/svg10.dtd">
<svg version="1.0" xmlns="http://www.w3.org/2000/svg"
 width="740.000000pt" height="804.000000pt" viewBox="0 0 740.000000 804.000000"
 preserveAspectRatio="xMidYMid meet">

<g transform="translate(0.000000,804.000000) scale(0.100000,-0.100000)"
fill="#FFFFFF" stroke="none">
<path d="M2365 6444 c-489 -86 -894 -438 -1044 -907 -64 -200 -62 -144 -59
-1558 l3 -1284 28 -103 c69 -261 189 -466 380 -648 194 -186 411 -296 692
-351 83 -17 182 -18 1335 -18 1390 0 1316 -3 1539 71 388 129 705 446 835 834
74 222 71 150 71 1540 0 1138 -1 1253 -17 1336 -52 274 -167 498 -354 694
-187 194 -409 319 -689 387 -64 16 -184 17 -1355 19 -1070 2 -1298 0 -1365
-12z m2638 -219 c450 -78 802 -423 903 -885 18 -80 19 -152 19 -1320 0 -1159
-1 -1240 -18 -1318 -102 -463 -425 -785 -891 -890 -62 -13 -219 -16 -1231 -19
-1235 -4 -1320 -2 -1484 42 -379 102 -683 407 -789 793 l-27 97 -3 1260 c-3
1356 -4 1324 49 1486 108 333 377 603 712 715 159 53 132 52 1448 53 1047 1
1239 -1 1312 -14z"/>
<path d="M4977 5636 c-177 -64 -233 -286 -107 -429 55 -62 124 -90 209 -85
142 9 239 102 249 241 6 79 -13 138 -61 194 -74 83 -189 114 -290 79z"/>
<path d="M3625 5224 c-163 -21 -211 -30 -279 -51 -181 -57 -338 -149 -477
-281 -183 -173 -307 -400 -355 -649 -23 -117 -23 -330 -1 -444 96 -492 464
-862 957 -965 104 -22 331 -25 440 -5 511 92 908 501 984 1013 19 123 20 201
6 318 -57 460 -367 847 -802 999 -48 16 -122 37 -165 45 -82 15 -257 27 -308
20z m315 -250 c350 -88 624 -359 717 -713 35 -132 37 -333 5 -464 -47 -190
-130 -338 -266 -473 -136 -136 -284 -219 -473 -266 -131 -32 -332 -30 -465 5
-401 106 -693 443 -738 854 -44 404 177 803 545 983 221 108 441 132 675 74z"/>
</g>
</svg>