<?xml version="1.0" encoding="UTF-8"?>
<svg version="1.1" xmlns="http://www.w3.org/2000/svg" width="840" height="743">
<path d="M0 0 C0.69625488 0.391875 1.39250977 0.78375 2.10986328 1.1875 C4.20788881 2.38009206 6.29425976 3.59002438 8.375 4.8125 C9.01219971 5.18544189 9.64939941 5.55838379 10.3059082 5.94262695 C13.32032723 7.76632772 15.01309985 9.01964977 17 12 C16.70778009 16.89381899 14.93733833 20.49901858 12.640625 24.77734375 C12.29993484 25.41682953 11.95924469 26.05631531 11.60823059 26.71517944 C10.4974099 28.79402545 9.37408665 30.86580172 8.25 32.9375 C7.47405884 34.38215371 6.69859092 35.82706169 5.92358398 37.2722168 C0.89700219 46.61833651 -4.26381242 55.88453262 -9.52954102 65.09814453 C-13.30425524 71.71445744 -16.89398101 78.40961985 -20.4128418 85.16479492 C-24.31783386 92.64890276 -28.40441634 100.02427964 -32.53417969 107.38623047 C-34.22605546 110.40308957 -35.91385799 113.42221174 -37.6015625 116.44140625 C-47.99779892 135.03064984 -47.99779892 135.03064984 -52 142 C-51.13697266 142.26772217 -50.27394531 142.53544434 -49.38476562 142.8112793 C-46.02964004 143.9895905 -43.00612882 145.39756688 -39.84375 147.01953125 C-39.26811813 147.31427841 -38.69248627 147.60902557 -38.09941101 147.91270447 C-36.22983512 148.87342242 -34.36448497 149.8419421 -32.5 150.8125 C-31.53775009 151.31179016 -31.53775009 151.31179016 -30.55606079 151.82116699 C-7.61133447 163.75018683 14.70347498 176.64375917 34 194 C35.15628906 195.03060547 35.15628906 195.03060547 36.3359375 196.08203125 C45.08250577 204.3091673 51.28702421 214.29366183 52.27734375 226.38671875 C52.68388292 241.42866805 47.75595086 252.70273932 37.49609375 263.5859375 C18.35518221 282.097805 -7.99120433 286.59130222 -33.66796875 286.27734375 C-59.08736179 285.50355941 -82.58556313 275.22533015 -100.328125 256.93359375 C-109 246.90420561 -109 246.90420561 -109 243 C-109.66 243 -110.32 243 -111 243 C-111.2789209 243.7307373 -111.5578418 244.46147461 -111.84521484 245.21435547 C-112.91383574 247.79214921 -114.10574199 250.14289235 -115.4765625 252.5703125 C-116.22220459 253.89276978 -116.22220459 253.89276978 -116.98291016 255.24194336 C-117.5247998 256.19335205 -118.06668945 257.14476074 -118.625 258.125 C-119.19911621 259.1363501 -119.77323242 260.1477002 -120.36474609 261.18969727 C-126.36592209 271.71546738 -132.54379671 282.13532359 -138.74894714 292.54170227 C-141.38937785 296.97066663 -144.01890568 301.40599519 -146.64453125 305.84375 C-155.04232631 320.03166442 -163.4992171 334.18029025 -172.07568359 348.26098633 C-175.61606874 354.07363987 -179.14437073 359.89253249 -182.63476562 365.73535156 C-184.53684615 368.91892957 -186.44750577 372.09729478 -188.36035156 375.27441406 C-189.57017279 377.28549867 -190.7774797 379.29809634 -191.98339844 381.31152344 C-193.76931213 384.29142882 -195.56607177 387.26459386 -197.36886597 390.23431396 C-198.41318071 391.95981765 -199.44804168 393.69103178 -200.48266602 395.42236328 C-201.12647217 396.4792334 -201.77027832 397.53610352 -202.43359375 398.625 C-203.00134521 399.56601562 -203.56909668 400.50703125 -204.15405273 401.4765625 C-206.18339487 404.25070353 -208.12726276 406.11486355 -211 408 C-214.57195286 407.29961709 -216.42284442 406.57715558 -219 404 C-219.27453709 402.21032143 -219.27453709 402.21032143 -219.30970764 400.00308228 C-219.33690305 398.74563029 -219.33690305 398.74563029 -219.36464787 397.46277523 C-219.37956099 396.07668733 -219.37956099 396.07668733 -219.39477539 394.66259766 C-219.41298812 393.68755311 -219.43120085 392.71250856 -219.44996548 391.70791721 C-219.50855378 388.44338545 -219.55309041 385.17881354 -219.59765625 381.9140625 C-219.63608409 379.61272287 -219.67536614 377.31139737 -219.7154541 375.01008606 C-219.82068646 368.82888775 -219.91383595 362.64756021 -220.0047493 356.46613693 C-220.10079889 350.07764973 -220.20813053 343.68935249 -220.31420898 337.30102539 C-220.55703849 322.53422545 -220.78127946 307.76717434 -221 293 C-221.02929285 291.03045648 -221.0585895 289.06091302 -221.08789062 287.09136963 C-221.26975871 274.8401174 -221.44637781 262.58879153 -221.62091064 250.33743286 C-221.68663341 203.31735339 -221.68663341 203.31735339 -226.4375 156.625 C-226.54755371 155.95235107 -226.65760742 155.27970215 -226.77099609 154.58666992 C-227.60720791 149.9945025 -228.80574277 146.09802178 -231 142 C-232.80025896 140.71790133 -232.80025896 140.71790133 -235 141 C-264.22861092 151.2634817 -289.1390976 180.13014073 -304.5625 205.92578125 C-306 208 -306 208 -309 210 C-312.42318917 209.85736712 -314.32879221 209.58460033 -316.9375 207.3125 C-318.418413 204.08933642 -317.86843775 202.42890211 -317 199 C-315.65937347 196.57655974 -314.31998579 194.38708459 -312.75 192.125 C-312.30744873 191.47789062 -311.86489746 190.83078125 -311.40893555 190.1640625 C-297.72393345 170.48906381 -281.57479379 153.83485187 -262 140 C-261.0416626 139.32251709 -261.0416626 139.32251709 -260.06396484 138.63134766 C-250.8166916 132.18803943 -240.72989807 125.43601359 -229 127 C-223.41618993 128.97007078 -219.56683638 132.66956626 -217 138 C-208.95329087 160.26544606 -208.94976283 185.37335168 -208.61108398 208.77709961 C-208.5817063 210.6118064 -208.55199275 212.44650783 -208.52197266 214.28120422 C-208.4421959 219.21399403 -208.36706036 224.14684445 -208.29281878 229.07972026 C-208.21415389 234.25269897 -208.13113629 239.42560788 -208.04859924 244.598526 C-207.89329683 254.3727874 -207.74185498 264.14710457 -207.59183317 273.92144829 C-207.42070884 285.05827054 -207.24523039 296.19502289 -207.06940353 307.33177173 C-206.70812363 330.22110713 -206.35225535 353.11052406 -206 376 C-203.55713534 372.97998132 -201.31089616 370.04593921 -199.36328125 366.68359375 C-198.87762695 365.85206787 -198.39197266 365.02054199 -197.89160156 364.16381836 C-197.37049805 363.2641333 -196.84939453 362.36444824 -196.3125 361.4375 C-191.55774831 353.30512674 -186.72611378 345.22451207 -181.81674194 337.18469238 C-174.32336014 324.91145264 -167.00314561 312.5444238 -159.75274658 300.12635803 C-156.69988945 294.89783788 -153.63005585 289.68265016 -150.5 284.5 C-143.56092694 272.99751332 -136.82026718 261.375722 -130.04022217 249.77905273 C-129.06110044 248.10449779 -128.08158859 246.43017097 -127.10205078 244.75585938 C-113.23942017 221.05633338 -99.53488296 197.26613794 -85.94433594 173.40966797 C-84.00073306 170.00128552 -82.0512937 166.59628585 -80.1015625 163.19140625 C-78.90075694 161.08609987 -77.70022247 158.98063884 -76.5 156.875 C-75.66251221 155.41670776 -75.66251221 155.41670776 -74.80810547 153.92895508 C-74.30424316 153.04232178 -73.80038086 152.15568848 -73.28125 151.2421875 C-72.83845703 150.4672998 -72.39566406 149.69241211 -71.93945312 148.89404297 C-70.85188416 147.0537536 -70.85188416 147.0537536 -71 145 C-71.55647217 144.7097998 -72.11294434 144.41959961 -72.6862793 144.12060547 C-106.16998136 126.54517081 -141.59858241 105.02666061 -154.25390625 67.2578125 C-159.44067092 49.81082738 -158.3797971 32.07369405 -149.7890625 15.88671875 C-138.94414862 -1.61195234 -120.83417378 -9.37372521 -101.59375 -13.96484375 C-100.06331466 -14.31349138 -98.53213135 -14.65888268 -97 -15 C-95.8965625 -15.24878906 -94.793125 -15.49757813 -93.65625 -15.75390625 C-62.06285782 -21.45826873 -27.85539378 -15.73798356 0 0 Z M-135.35546875 14.96875 C-144.40591969 26.14745425 -147.05243128 38.77714305 -146 53 C-141.98179831 77.44809462 -126.15033384 96.36850691 -106.49536133 110.63110352 C-96.39960102 117.68942487 -85.65113407 123.82814327 -75 130 C-73.68660645 130.77005371 -73.68660645 130.77005371 -72.34667969 131.55566406 C-71.54907227 132.01424805 -70.75146484 132.47283203 -69.9296875 132.9453125 C-69.23858887 133.34508301 -68.54749023 133.74485352 -67.83544922 134.15673828 C-65.88230531 135.2087393 -65.88230531 135.2087393 -63 135 C-62.67427002 134.39341553 -62.34854004 133.78683105 -62.01293945 133.16186523 C-55.94746187 121.88047897 -49.83590821 110.63216844 -43.5 99.5 C-38.50539043 90.72353191 -33.66025196 81.8759672 -28.87719727 72.98266602 C-25.15490593 66.08055595 -21.32410037 59.24819934 -17.4375 52.4375 C-12.90085163 44.45849448 -8.47812021 36.4266862 -4.1875 28.3125 C-3.66534912 27.33788818 -3.14319824 26.36327637 -2.60522461 25.35913086 C-2.13093018 24.45300049 -1.65663574 23.54687012 -1.16796875 22.61328125 C-0.74797607 21.81704346 -0.3279834 21.02080566 0.10473633 20.20043945 C1.2512396 17.77841812 1.2512396 17.77841812 1 14 C-30.93758231 -12.60567565 -105.70245324 -17.49349856 -135.35546875 14.96875 Z M-58 151 C-58.31001953 151.55010742 -58.62003906 152.10021484 -58.93945312 152.66699219 C-65.55431318 164.39946231 -72.19336863 176.117912 -78.875 187.8125 C-79.20582581 188.39157104 -79.53665161 188.97064209 -79.87750244 189.56726074 C-83.66402092 196.19269152 -87.46332796 202.81058131 -91.28125 209.41796875 C-91.62753448 210.01736771 -91.97381897 210.61676666 -92.33059692 211.23432922 C-93.9864952 214.09983295 -95.64418141 216.9642715 -97.30419922 219.82739258 C-97.89217285 220.84341553 -98.48014648 221.85943848 -99.0859375 222.90625 C-99.6020459 223.79634766 -100.1181543 224.68644531 -100.64990234 225.60351562 C-101.83572544 227.70840523 -102.94359341 229.82790191 -104 232 C-92.08014924 249.35443317 -79.99740115 262.68347219 -59.875 270.375 C-59.25488037 270.6136377 -58.63476074 270.85227539 -57.99584961 271.09814453 C-35.87050132 279.0511937 -9.03770885 276.96060754 12.2265625 267.40625 C26.49960549 260.16921412 35.85252014 251.44243957 41 236 C42.10325293 226.29416729 40.64687052 219.01091687 35 211 C11.81224372 182.6217336 -25.99850056 166.95234409 -58 151 Z " fill="#050708" transform="translate(527,135)"/>
</svg>
